# Blender 4.3.2
# www.blender.org
mtllib teleporting_launcher_collider.mtl
o Body
v -1.676935 -0.160000 2.702034
v -2.240000 -0.160000 2.138968
v -2.240000 0.680000 2.138968
v -1.676935 0.680000 2.702034
v -2.240000 -0.160000 -2.334902
v -1.676935 -0.160000 -2.897966
v -1.676935 0.680000 -2.897966
v -2.240000 0.680000 -2.334902
v 2.240000 -0.160000 2.138968
v 1.676935 -0.160000 2.702034
v 1.676935 0.680000 2.702034
v 2.240000 0.680000 2.138968
v 1.676935 -0.160000 -2.897966
v 2.240000 -0.160000 -2.334902
v 2.240000 0.680000 -2.334902
v 1.676935 0.680000 -2.897966
v 1.586333 -0.069398 2.702034
v 1.586333 0.589398 2.702034
v -1.586333 0.589398 2.702034
v -1.586333 -0.069398 2.702034
v 2.240000 -0.069398 -2.244300
v 2.240000 0.589398 -2.244300
v 2.240000 0.589398 2.048367
v 2.240000 -0.069398 2.048367
v -2.240000 -0.069398 2.048367
v -2.240000 0.589398 2.048367
v -2.240000 0.589398 -2.244300
v -2.240000 -0.069398 -2.244300
v -1.586333 -0.069398 -2.897966
v -1.586333 0.589398 -2.897966
v 1.586333 0.589398 -2.897966
v 1.586333 -0.069398 -2.897966
v -1.741000 -0.069398 2.637968
v -1.741000 0.589398 2.637968
v -2.175935 0.589398 2.203034
v -2.175935 -0.069398 2.203034
v -1.741000 0.589398 -2.833901
v -1.741000 -0.069398 -2.833901
v -2.175935 -0.069398 -2.398967
v -2.175935 0.589398 -2.398967
v 2.175935 0.589398 -2.398967
v 2.175935 -0.069398 -2.398967
v 1.741000 -0.069398 -2.833901
v 1.741000 0.589398 -2.833901
v 1.741000 0.589398 2.637968
v 1.741000 -0.069398 2.637968
v 2.175935 -0.069398 2.203034
v 2.175935 0.589398 2.203034
v 1.586333 0.589398 2.798126
v 1.426191 0.589398 2.958269
v 1.586333 0.429256 2.958269
v 1.586333 0.090744 2.958269
v 1.426191 -0.069398 2.958269
v 1.586333 -0.069398 2.798126
v -1.426191 -0.069398 2.958269
v -1.586333 0.090744 2.958269
v -1.586333 -0.069398 2.798126
v -1.586333 0.589398 2.798126
v -1.586333 0.429256 2.958269
v -1.426191 0.589398 2.958269
v 2.336093 0.589398 -2.244300
v 2.496235 0.589398 -2.084157
v 2.496235 0.429256 -2.244300
v 2.496235 0.090744 -2.244300
v 2.496235 -0.069398 -2.084157
v 2.336093 -0.069398 -2.244300
v 2.496235 -0.069398 1.888224
v 2.496235 0.090744 2.048367
v 2.336093 -0.069398 2.048367
v 2.336093 0.589398 2.048367
v 2.496235 0.429256 2.048367
v 2.496235 0.589398 1.888224
v -2.336093 0.589398 2.048367
v -2.496235 0.589398 1.888224
v -2.496235 0.429256 2.048367
v -2.496235 0.090744 2.048367
v -2.496235 -0.069398 1.888224
v -2.336093 -0.069398 2.048367
v -2.496235 -0.069398 -2.084157
v -2.496235 0.090744 -2.244300
v -2.336093 -0.069398 -2.244300
v -2.336093 0.589398 -2.244300
v -2.496235 0.429256 -2.244300
v -2.496235 0.589398 -2.084157
v -1.586333 0.589398 -2.994059
v -1.426191 0.589398 -3.154202
v -1.586333 0.429256 -3.154202
v -1.586333 0.090744 -3.154202
v -1.426191 -0.069398 -3.154202
v -1.586333 -0.069398 -2.994059
v 1.426191 -0.069398 -3.154202
v 1.586333 0.090744 -3.154202
v 1.586333 -0.069398 -2.994059
v 1.586333 0.589398 -2.994059
v 1.586333 0.429256 -3.154202
v 1.426191 0.589398 -3.154202
v -1.922186 0.090744 2.819154
v -2.035424 -0.069398 2.705916
v -1.808948 -0.069398 2.705916
v -1.808948 0.589398 2.705916
v -2.035424 0.589398 2.705916
v -1.922186 0.429256 2.819154
v -2.243883 -0.069398 2.497458
v -2.357121 0.090744 2.384220
v -2.243883 -0.069398 2.270982
v -2.243883 0.589398 2.270982
v -2.357121 0.429256 2.384220
v -2.243883 0.589398 2.497458
v -1.922186 0.429256 -3.015087
v -2.035424 0.589398 -2.901849
v -1.808948 0.589398 -2.901849
v -1.808948 -0.069398 -2.901849
v -2.035424 -0.069398 -2.901849
v -1.922186 0.090744 -3.015087
v -2.243883 0.589398 -2.693390
v -2.357121 0.429256 -2.580153
v -2.243883 0.589398 -2.466915
v -2.243883 -0.069398 -2.466915
v -2.357121 0.090744 -2.580153
v -2.243883 -0.069398 -2.693390
v 2.357121 0.429256 -2.580153
v 2.243883 0.589398 -2.693390
v 2.243883 0.589398 -2.466915
v 2.243883 -0.069398 -2.466915
v 2.243883 -0.069398 -2.693390
v 2.357121 0.090744 -2.580153
v 2.035424 0.589398 -2.901849
v 1.922186 0.429256 -3.015087
v 1.808948 0.589398 -2.901849
v 1.808948 -0.069398 -2.901849
v 1.922186 0.090744 -3.015087
v 2.035424 -0.069398 -2.901849
v 1.922186 0.429256 2.819154
v 2.035424 0.589398 2.705916
v 1.808948 0.589398 2.705916
v 1.808948 -0.069398 2.705916
v 2.035424 -0.069398 2.705916
v 1.922186 0.090744 2.819154
v 2.243883 0.589398 2.497458
v 2.357121 0.429256 2.384220
v 2.243883 0.589398 2.270982
v 2.243883 -0.069398 2.270982
v 2.357121 0.090744 2.384220
v 2.243883 -0.069398 2.497458
v -1.961493 -0.160000 -2.219540
v -1.561574 -0.160000 -2.619459
v 1.561574 -0.160000 -2.619459
v 1.961493 -0.160000 -2.219540
v 1.961493 -0.160000 2.023607
v 1.561574 -0.160000 2.423526
v -1.561574 -0.160000 2.423526
v -1.961493 -0.160000 2.023607
v -1.561574 -0.301221 -2.619459
v -1.517954 -0.406527 -2.514153
v -1.856186 -0.406527 -2.175921
v -1.961493 -0.301221 -2.219540
v -1.856186 -0.406527 1.979988
v -1.961493 -0.301221 2.023607
v 1.561574 -0.301221 -2.619459
v 1.517954 -0.406527 -2.514153
v 1.961493 -0.301221 -2.219540
v 1.856186 -0.406527 -2.175921
v 1.961493 -0.301221 2.023607
v 1.856186 -0.406527 1.979988
v 1.561574 -0.301221 2.423526
v 1.517954 -0.406527 2.318219
v -1.561574 -0.301221 2.423526
v -1.517954 -0.406527 2.318219
v 2.084302 0.680000 -2.270410
v 1.612443 0.680000 -2.742268
v -1.612443 0.680000 -2.742268
v -2.084302 0.680000 -2.270410
v -2.084302 0.680000 2.074476
v -1.612443 0.680000 2.546335
v 1.612443 0.680000 2.546335
v 2.084302 0.680000 2.074476
v 1.914230 0.680000 -2.199964
v 1.541997 0.680000 -2.572196
v -1.541997 0.680000 -2.572196
v -1.914230 0.680000 -2.199964
v -1.914230 0.680000 2.004030
v -1.541997 0.680000 2.376264
v 1.541997 0.680000 2.376264
v 1.914230 0.680000 2.004030
v 1.612443 0.782651 -2.742268
v 2.084302 0.782651 -2.270410
v 2.084302 0.782651 2.074476
v -1.612443 0.782651 -2.742268
v -2.084302 0.782651 -2.270410
v -2.084302 0.782651 2.074476
v -1.612443 0.782651 2.546335
v 1.612443 0.782651 2.546335
v 1.541997 0.782651 -2.572196
v 1.914230 0.782651 -2.199964
v 1.914230 0.782651 2.004030
v -1.541997 0.782651 -2.572196
v -1.914230 0.782651 -2.199964
v -1.914230 0.782651 2.004030
v -1.541997 0.782651 2.376264
v 1.541997 0.782651 2.376264
vn 0.7071 -0.0000 -0.7071
vn 0.7071 -0.0000 0.7071
vn -0.0000 1.0000 -0.0000
vn -0.0000 -1.0000 -0.0000
vn 1.0000 -0.0000 -0.0000
vn -0.0000 -0.0000 1.0000
vn -0.7071 -0.0000 0.7071
vn -1.0000 -0.0000 -0.0000
vn -0.0000 -0.0000 -1.0000
vn -0.7071 -0.0000 -0.7071
vn 0.5773 0.5774 0.5774
vn 0.5774 -0.5774 0.5774
vn -0.5774 -0.5774 0.5774
vn -0.5774 0.5774 0.5774
vn 0.5774 0.5773 -0.5774
vn 0.5774 -0.5774 -0.5774
vn 0.5774 -0.5774 0.5773
vn 0.5774 0.5773 0.5773
vn -0.5774 0.5773 0.5773
vn -0.5774 -0.5774 -0.5774
vn -0.5774 0.5773 -0.5774
vn -0.5774 0.5774 -0.5774
vn 0.5773 0.5774 -0.5774
vn -0.0000 -0.5773 0.8165
vn -0.0000 0.5773 0.8165
vn -0.8165 -0.5774 -0.0000
vn -0.8165 0.5774 -0.0000
vn -0.0000 0.5773 -0.8165
vn -0.0000 -0.5773 -0.8165
vn 0.8165 0.5774 -0.0000
vn 0.8165 -0.5774 -0.0000
vn -0.5000 -0.7071 -0.5000
vn -0.7071 -0.7071 -0.0000
vn -0.0000 -0.7071 -0.7071
vn 0.5000 -0.7071 -0.5000
vn 0.7071 -0.7071 -0.0000
vn 0.5000 -0.7071 0.5000
vn -0.0000 -0.7071 0.7071
vn -0.5000 -0.7071 0.5000
vt 0.598035 0.274986
vt 0.401965 0.274986
vt 0.449626 0.274986
vt 0.550374 0.274986
vt 0.401965 0.002860
vt 0.598035 0.002860
vt 0.550374 0.002860
vt 0.449626 0.002860
vt 0.643179 0.531161
vt 0.663951 0.514543
vt 0.836049 0.514543
vt 0.856821 0.531161
vt 0.856821 0.718839
vt 0.836049 0.735457
vt 0.663951 0.735457
vt 0.643179 0.718839
vt 0.401965 0.963523
vt 0.401965 0.786477
vt 0.401965 0.795413
vt 0.401965 0.954587
vt 0.401965 0.963523
vt 0.401965 0.231298
vt 0.401965 0.242673
vt 0.401965 0.263612
vt 0.401965 0.463523
vt 0.401965 0.286477
vt 0.401965 0.295413
vt 0.401965 0.454587
vt 0.598035 0.463523
vt 0.449626 0.463523
vt 0.550374 0.463523
vt 0.401965 0.029182
vt 0.598035 0.029182
vt 0.550374 0.029182
vt 0.449626 0.029182
vt 0.401965 0.029182
vt 0.598035 0.774986
vt 0.401965 0.774986
vt 0.449626 0.774986
vt 0.550374 0.774986
vt 0.359458 0.530287
vt 0.359458 0.719713
vt 0.375000 0.781421
vt 0.625000 0.781421
vt 0.598035 0.786477
vt 0.625000 0.968579
vt 0.598035 0.963523
vt 0.375000 0.968579
vt 0.375000 0.525137
vt 0.625000 0.525137
vt 0.598035 0.529182
vt 0.401965 0.529182
vt 0.625000 0.724863
vt 0.598035 0.720818
vt 0.375000 0.724863
vt 0.401965 0.720818
vt 0.375000 0.025137
vt 0.625000 0.025137
vt 0.625000 0.224863
vt 0.598035 0.220818
vt 0.375000 0.224863
vt 0.401965 0.220818
vt 0.375000 0.281421
vt 0.625000 0.281421
vt 0.598035 0.286477
vt 0.625000 0.468579
vt 0.375000 0.468579
vt 0.375000 0.000000
vt 0.625000 0.000000
vt 0.598035 0.022277
vt 0.401965 0.022277
vt 0.598035 0.231298
vt 0.401965 0.518702
vt 0.598035 0.518702
vt 0.401965 0.475014
vt 0.598035 0.475014
vt 0.401965 0.731298
vt 0.598035 0.731298
vt 0.598035 0.954587
vt 0.598035 0.795413
vt 0.598035 0.720818
vt 0.598035 0.713669
vt 0.598035 0.536331
vt 0.598035 0.220818
vt 0.598035 0.213669
vt 0.598035 0.036331
vt 0.598035 0.454587
vt 0.598035 0.295414
vt 0.401965 0.007915
vt 0.401965 0.017222
vt 0.598035 0.263612
vt 0.598035 0.242673
vt 0.598035 0.507327
vt 0.598035 0.486388
vt 0.598035 0.774986
vt 0.598035 0.763612
vt 0.598035 0.742673
vt 0.449626 0.963523
vt 0.550374 0.963523
vt 0.550374 0.231298
vt 0.449626 0.231298
vt 0.401965 0.231298
vt 0.550374 0.786477
vt 0.449626 0.786477
vt 0.598035 0.763612
vt 0.449626 0.774986
vt 0.401965 0.763612
vt 0.401965 0.742673
vt 0.449626 0.731298
vt 0.550374 0.731298
vt 0.401965 0.036331
vt 0.449626 0.029182
vt 0.550374 0.029182
vt 0.598035 0.036331
vt 0.598035 0.213669
vt 0.550374 0.220818
vt 0.449626 0.220818
vt 0.401965 0.213669
vt 0.449626 0.518702
vt 0.550374 0.518702
vt 0.550374 0.529182
vt 0.449626 0.529182
vt 0.401965 0.529182
vt 0.401965 0.742673
vt 0.401965 0.763612
vt 0.401965 0.220818
vt 0.550374 0.731298
vt 0.449626 0.731298
vt 0.401965 0.731298
vt 0.401965 0.036331
vt 0.401965 0.213669
vt 0.401965 0.007915
vt 0.598035 0.007915
vt 0.598035 0.017222
vt 0.550374 0.022277
vt 0.449626 0.022277
vt 0.401965 0.017222
vt 0.550374 0.286477
vt 0.449626 0.286477
vt 0.598035 0.017222
vt 0.598035 0.007915
vt 0.449626 0.022277
vt 0.550374 0.022277
vt 0.401965 0.507327
vt 0.401965 0.486388
vt 0.449626 0.475014
vt 0.550374 0.475014
vt 0.401965 0.536331
vt 0.449626 0.529182
vt 0.550374 0.720818
vt 0.449626 0.720818
vt 0.401965 0.713669
vt 0.598035 0.263612
vt 0.401965 0.263612
vt 0.449626 0.231298
vt 0.550374 0.231298
vt 0.401965 0.475014
vt 0.401965 0.486388
vt 0.401965 0.507327
vt 0.401965 0.720818
vt 0.449626 0.720818
vt 0.550374 0.720818
vt 0.550374 0.475014
vt 0.449626 0.475014
vt 0.401965 0.475014
vt 0.401965 0.536331
vt 0.401965 0.713669
vt 0.401965 0.295414
vt 0.598035 0.295413
vt 0.598035 0.454587
vt 0.550374 0.463523
vt 0.401965 0.454587
vt 0.550374 0.963523
vt 0.125000 0.525137
vt 0.156421 0.500000
vt 0.162859 0.512433
vt 0.140542 0.530287
vt 0.343579 0.500000
vt 0.337141 0.512433
vt 0.343579 0.750000
vt 0.337141 0.737567
vt 0.156421 0.750000
vt 0.162859 0.737567
vt 0.125000 0.724863
vt 0.140542 0.719713
vt 0.165293 0.517135
vt 0.146418 0.532234
vt 0.146418 0.717766
vt 0.334707 0.517135
vt 0.353582 0.532234
vt 0.353582 0.717766
vt 0.334707 0.732865
vt 0.165293 0.732866
vt 0.656421 0.500000
vt 0.660020 0.506951
vt 0.633689 0.528016
vt 0.843579 0.500000
vt 0.839980 0.506951
vt 0.875000 0.525137
vt 0.866312 0.528016
vt 0.875000 0.724863
vt 0.866312 0.721984
vt 0.843579 0.750000
vt 0.839980 0.743049
vt 0.656421 0.750000
vt 0.660020 0.743049
vt 0.633689 0.721984
s 0
usemtl Material.004
f 177/9/3 178/10/3 179/11/3 180/12/3 181/13/3 182/14/3 183/15/3 184/16/3
f 148/41/5 149/42/5 163/42/5 161/41/5
f 10/43/6 11/44/6 18/45/6 17/18/6
f 11/44/6 4/46/6 19/47/6 18/45/6
f 4/46/6 1/48/6 20/17/6 19/47/6
f 1/48/6 10/43/6 17/18/6 20/17/6
f 14/49/5 15/50/5 22/51/5 21/52/5
f 15/50/5 12/53/5 23/54/5 22/51/5
f 12/53/5 9/55/5 24/56/5 23/54/5
f 9/55/5 14/49/5 21/52/5 24/56/5
f 2/57/8 3/58/8 26/33/8 25/32/8
f 3/58/8 8/59/8 27/60/8 26/33/8
f 8/59/8 5/61/8 28/62/8 27/60/8
f 5/61/8 2/57/8 25/32/8 28/62/8
f 6/63/9 7/64/9 30/65/9 29/26/9
f 7/64/9 16/66/9 31/29/9 30/65/9
f 16/66/9 13/67/9 32/25/9 31/29/9
f 13/67/9 6/63/9 29/26/9 32/25/9
f 1/68/7 4/69/7 34/6/7 33/5/7
f 4/69/7 3/58/7 35/70/7 34/6/7
f 3/58/7 2/57/7 36/71/7 35/70/7
f 2/57/7 1/68/7 33/5/7 36/71/7
f 7/64/10 6/63/10 38/2/10 37/1/10
f 6/63/10 5/61/10 39/22/10 38/2/10
f 5/61/10 8/59/10 40/72/10 39/22/10
f 8/59/10 7/64/10 37/1/10 40/72/10
f 15/50/1 14/49/1 42/73/1 41/74/1
f 14/49/1 13/67/1 43/75/1 42/73/1
f 13/67/1 16/66/1 44/76/1 43/75/1
f 16/66/1 15/50/1 41/74/1 44/76/1
f 11/44/2 10/43/2 46/38/2 45/37/2
f 10/43/2 9/55/2 47/77/2 46/38/2
f 9/55/2 12/53/2 48/78/2 47/77/2
f 12/53/2 11/44/2 45/37/2 48/78/2
f 5/174/4 6/175/4 146/176/4 145/177/4
f 6/175/4 13/178/4 147/179/4 146/176/4
f 13/178/4 14/49/4 148/41/4 147/179/4
f 14/49/4 9/55/4 149/42/4 148/41/4
f 9/55/4 10/180/4 150/181/4 149/42/4
f 10/180/4 1/182/4 151/183/4 150/181/4
f 1/182/4 2/184/4 152/185/4 151/183/4
f 2/184/4 5/174/4 145/177/4 152/185/4
f 146/176/9 147/179/9 159/179/9 153/176/9
f 151/183/7 152/185/7 158/185/7 167/183/7
f 149/42/2 150/181/2 165/181/2 163/42/2
f 152/185/8 145/177/8 156/177/8 158/185/8
f 147/179/1 148/41/1 161/41/1 159/179/1
f 150/181/6 151/183/6 167/183/6 165/181/6
f 154/186/32 155/187/32 156/177/32 153/176/32
f 158/185/33 156/177/33 155/187/33 157/188/33
f 153/176/34 159/179/34 160/189/34 154/186/34
f 162/190/35 160/189/35 159/179/35 161/41/35
f 161/41/36 163/42/36 164/191/36 162/190/36
f 166/192/37 164/191/37 163/42/37 165/181/37
f 165/181/38 167/183/38 168/193/38 166/192/38
f 157/188/39 168/193/39 167/183/39 158/185/39
f 145/177/10 146/176/10 153/176/10 156/177/10
f 15/50/3 16/194/3 170/195/3 169/196/3
f 16/194/3 7/197/3 171/198/3 170/195/3
f 7/197/3 8/199/3 172/200/3 171/198/3
f 8/199/3 3/201/3 173/202/3 172/200/3
f 3/201/3 4/203/3 174/204/3 173/202/3
f 4/203/3 11/205/3 175/206/3 174/204/3
f 11/205/3 12/53/3 176/207/3 175/206/3
f 12/53/3 15/50/3 169/196/3 176/207/3
usemtl Material.006
f 178/10/7 177/9/7 194/9/7 193/10/7
f 176/207/5 169/196/5 186/196/5 187/207/5
f 184/16/10 183/15/10 200/15/10 195/16/10
f 169/196/1 170/195/1 185/195/1 186/196/1
f 183/15/9 182/14/9 199/14/9 200/15/9
f 175/206/2 176/207/2 187/207/2 192/206/2
f 182/14/1 181/13/1 198/13/1 199/14/1
f 174/204/6 175/206/6 192/206/6 191/204/6
f 186/196/3 185/195/3 193/10/3 194/9/3
f 185/195/3 188/198/3 196/11/3 193/10/3
f 188/198/3 189/200/3 197/12/3 196/11/3
f 189/200/3 190/202/3 198/13/3 197/12/3
f 190/202/3 191/204/3 199/14/3 198/13/3
f 191/204/3 192/206/3 200/15/3 199/14/3
f 192/206/3 187/207/3 195/16/3 200/15/3
f 187/207/3 186/196/3 194/9/3 195/16/3
f 170/195/9 171/198/9 188/198/9 185/195/9
f 177/9/8 184/16/8 195/16/8 194/9/8
f 171/198/10 172/200/10 189/200/10 188/198/10
f 179/11/6 178/10/6 193/10/6 196/11/6
f 172/200/8 173/202/8 190/202/8 189/200/8
f 180/12/2 179/11/2 196/11/2 197/12/2
f 173/202/7 174/204/7 191/204/7 190/202/7
f 181/13/5 180/12/5 197/12/5 198/13/5
usemtl Material.003
f 20/17/4 17/18/4 54/18/4 53/19/4 55/20/4 57/21/4
f 32/25/4 29/26/4 90/26/4 89/27/4 91/28/4 93/25/4
f 31/29/5 32/25/5 93/25/5 92/30/5 95/31/5 94/29/5
f 25/32/6 26/33/6 73/33/6 75/34/6 76/35/6 78/36/6
f 18/45/3 19/47/3 58/47/3 60/79/3 50/80/3 49/45/3
f 22/51/3 23/54/3 70/81/3 72/82/3 62/83/3 61/51/3
f 26/33/3 27/60/3 82/84/3 84/85/3 74/86/3 73/33/3
f 30/65/3 31/29/3 94/29/3 96/87/3 86/88/3 85/65/3
f 19/47/8 20/17/8 57/21/8 56/98/8 59/99/8 58/47/8
f 17/18/5 18/45/5 49/45/5 51/103/5 52/104/5 54/18/5
f 77/111/8 76/112/8 75/113/8 74/114/8 84/115/8 83/116/8 80/117/8 79/118/8
f 21/52/9 22/51/9 61/51/9 63/121/9 64/122/9 66/123/9
f 27/60/9 28/62/9 81/126/9 80/117/9 83/116/9 82/60/9
f 28/62/4 25/32/4 78/32/4 77/130/4 79/131/4 81/62/4
f 29/26/8 30/65/8 85/65/8 87/138/8 88/139/8 90/26/8
f 65/148/5 64/149/5 63/121/5 62/83/5 72/82/5 71/150/5 68/151/5 67/152/5
f 23/54/6 24/56/6 69/160/6 68/161/6 71/162/6 70/54/6
f 24/56/4 21/52/4 66/52/4 65/166/4 67/167/4 69/56/4
f 89/168/9 88/139/9 87/138/9 86/169/9 96/170/9 95/171/9 92/30/9 91/172/9
f 49/45/11 50/80/11 51/103/11
f 52/104/12 53/19/12 54/18/12
f 55/20/13 56/98/13 57/21/13
f 58/47/14 59/99/14 60/79/14
f 61/51/15 62/83/15 63/121/15
f 64/122/16 65/148/16 66/52/16
f 67/167/17 68/151/17 69/160/17
f 70/81/18 71/162/18 72/82/18
f 73/33/19 74/86/19 75/113/19
f 76/35/13 77/111/13 78/32/13
f 79/131/20 80/117/20 81/126/20
f 82/84/21 83/116/21 84/115/21
f 85/65/22 86/88/22 87/138/22
f 88/139/20 89/168/20 90/26/20
f 91/28/16 92/30/16 93/25/16
f 94/29/23 95/31/23 96/170/23
f 53/19/6 52/104/6 51/103/6 50/80/6 60/79/6 59/173/6 56/98/6 55/20/6
usemtl inner_engine
f 37/1/1 38/2/1 112/2/1 114/3/1 109/4/1 111/1/1
f 33/5/2 34/6/2 100/6/2 102/7/2 97/8/2 99/5/2
f 38/2/4 39/22/4 118/22/4 120/23/4 113/24/4 112/2/4
f 45/37/7 46/38/7 136/38/7 138/39/7 133/40/7 135/37/7
f 36/71/4 33/5/4 99/5/4 98/89/4 103/90/4 105/71/4
f 40/72/3 37/1/3 111/1/3 110/91/3 115/92/3 117/72/3
f 44/76/3 41/74/3 123/74/3 122/93/3 127/94/3 129/76/3
f 48/78/3 45/37/3 135/95/3 134/96/3 139/97/3 141/78/3
f 39/22/7 40/72/7 117/72/7 116/100/7 119/101/7 118/102/7
f 134/105/2 133/40/2 138/106/2 137/107/2 144/108/2 143/109/2 140/110/2 139/97/2
f 41/74/2 42/73/2 124/73/2 126/119/2 121/120/2 123/74/2
f 46/38/4 47/77/4 142/77/4 144/124/4 137/125/4 136/38/4
f 47/77/1 48/78/1 141/78/1 140/127/1 143/128/1 142/129/1
f 98/132/7 97/8/7 102/7/7 101/133/7 108/134/7 107/135/7 104/136/7 103/137/7
f 34/6/3 35/70/3 106/70/3 108/140/3 101/141/3 100/6/3
f 35/70/10 36/71/10 105/71/10 104/142/10 107/143/10 106/70/10
f 122/93/1 121/120/1 126/119/1 125/144/1 132/145/1 131/146/1 128/147/1 127/94/1
f 110/153/10 109/4/10 114/3/10 113/154/10 120/23/10 119/155/10 116/156/10 115/92/10
f 42/73/4 43/75/4 130/157/4 132/158/4 125/159/4 124/73/4
f 43/75/10 44/76/10 129/76/10 128/163/10 131/164/10 130/165/10
f 97/8/24 98/132/24 99/5/24
f 100/6/25 101/141/25 102/7/25
f 103/90/26 104/136/26 105/71/26
f 106/70/27 107/143/27 108/134/27
f 109/4/28 110/153/28 111/1/28
f 112/2/29 113/24/29 114/3/29
f 115/92/27 116/156/27 117/72/27
f 118/22/26 119/101/26 120/23/26
f 121/120/30 122/93/30 123/74/30
f 124/73/31 125/159/31 126/119/31
f 127/94/28 128/147/28 129/76/28
f 130/157/29 131/164/29 132/145/29
f 133/40/25 134/105/25 135/95/25
f 136/38/24 137/125/24 138/106/24
f 139/97/30 140/110/30 141/78/30
f 142/77/31 143/128/31 144/108/31
o Body.001
v -1.753338 0.000000 2.994831
v -2.487111 0.000000 2.261058
v -2.487111 2.000000 2.261058
v -1.753338 2.000000 2.994831
v -2.487111 0.000000 -2.450072
v -1.753338 0.000000 -3.183845
v -1.753338 2.000000 -3.183845
v -2.487111 2.000000 -2.450072
v 2.487111 0.000000 2.261058
v 1.753338 0.000000 2.994831
v 1.753338 2.000000 2.994831
v 2.487111 2.000000 2.261058
v 1.753338 0.000000 -3.183845
v 2.487111 0.000000 -2.450072
v 2.487111 2.000000 -2.450072
v 1.753338 2.000000 -3.183845
vn -0.0000 -0.0000 1.0000
vn 1.0000 -0.0000 -0.0000
vn -0.0000 1.0000 -0.0000
vn -1.0000 -0.0000 -0.0000
vn -0.0000 -0.0000 -1.0000
vn -0.7071 -0.0000 0.7071
vn -0.7071 -0.0000 -0.7071
vn 0.7071 -0.0000 -0.7071
vn 0.7071 -0.0000 0.7071
vn -0.0000 -1.0000 -0.0000
vt 0.375000 0.786879
vt 0.625000 0.786879
vt 0.625000 0.963121
vt 0.375000 0.963121
vt 0.375000 0.529690
vt 0.625000 0.529690
vt 0.625000 0.720310
vt 0.375000 0.720310
vt 0.661879 0.500000
vt 0.838121 0.500000
vt 0.875000 0.529690
vt 0.875000 0.720310
vt 0.838121 0.750000
vt 0.661879 0.750000
vt 0.375000 0.029690
vt 0.625000 0.029690
vt 0.625000 0.220310
vt 0.375000 0.220310
vt 0.375000 0.286879
vt 0.625000 0.286879
vt 0.625000 0.463121
vt 0.375000 0.463121
vt 0.375000 0.000000
vt 0.625000 0.000000
vt 0.125000 0.529690
vt 0.161879 0.500000
vt 0.338121 0.500000
vt 0.375000 0.529690
vt 0.375000 0.720310
vt 0.338121 0.750000
vt 0.161879 0.750000
vt 0.125000 0.720310
s 0
usemtl Material.004
f 210/208/40 211/209/40 204/210/40 201/211/40
f 214/212/41 215/213/41 212/214/41 209/215/41
f 215/213/42 216/216/42 207/217/42 208/218/42 203/219/42 204/220/42 211/221/42 212/214/42
f 202/222/43 203/223/43 208/224/43 205/225/43
f 206/226/44 207/227/44 216/228/44 213/229/44
f 201/230/45 204/231/45 203/223/45 202/222/45
f 207/227/46 206/226/46 205/225/46 208/224/46
f 215/213/47 214/212/47 213/229/47 216/228/47
f 211/209/48 210/208/48 209/215/48 212/214/48
f 205/232/49 206/233/49 213/234/49 214/235/49 209/236/49 210/237/49 201/238/49 202/239/49
